<svg xmlns="http://www.w3.org/2000/svg" viewBox="0 0 1366 413.49"><defs><style>.cls-1{fill:#c1bbda;}.cls-2{fill:#efddea;}.cls-3{fill:#e2cbde;}.cls-4{fill:#ebddea;}.cls-5{fill:#9993ba;}.cls-6{fill:#a699bd;}.cls-7{fill:#ffeffd;}.cls-8{fill:#e3cddf;}.cls-9{fill:#f8e7f7;}.cls-10{fill:#e7d4e3;}.cls-11{fill:#fce9f5;}.cls-12{fill:#eedef1;}.cls-13{fill:#c7bdd3;}.cls-14{fill:#cabdd4;}.cls-15{fill:#a39cb7;}.cls-16{fill:#cdbeca;}.cls-17{fill:#c0acbd;}.cls-18{fill:#d2bcaa;}.cls-19{fill:#ded1dc;}.cls-20{fill:#c1aebe;}.cls-21{fill:#d7c8d6;}.cls-22{fill:#c5b4c2;}.cls-23{fill:#dbcbd4;}.cls-24{fill:#cdbfcf;}.cls-25{fill:#a79eb0;}.cls-26{fill:#877d99;}.cls-27{fill:#7c7796;}.cls-28{fill:#a99eb1;}.cls-29{fill:#a597a2;}.cls-30{fill:#bbadb5;}.cls-31{fill:#a0909e;}.cls-32{fill:#ad9fa8;}.cls-33{fill:#888190;}.cls-34{fill:#6a6279;}.cls-35{fill:#615d76;}</style></defs><title>Asset 2</title><g id="Layer_2" data-name="Layer 2"><g id="Layer_1-2" data-name="Layer 1"><polygon class="cls-1" points="742.5 147.51 714 263.08 866 190.25 742.5 147.51"/><polygon class="cls-2" points="866 190.25 1033.03 413.49 1016.41 375.49 907.16 158.59 866 190.25"/><polygon class="cls-3" points="907.16 158.59 866 190.25 742.5 147.51 907.16 158.59"/><polygon class="cls-4" points="907.16 158.59 799.5 93.67 835.8 153.79 907.16 158.59"/><polygon class="cls-5" points="742.5 147.51 783.64 150.28 799.5 93.67 742.5 147.51"/><polygon class="cls-6" points="835.81 153.79 799.5 93.67 783.64 150.28 835.81 153.79"/><polygon class="cls-7" points="1033.03 413.49 866 190.25 907.16 354.15 1033.03 413.49"/><polygon class="cls-8" points="714 263.08 819.04 312.61 866 190.25 714 263.08"/><polygon class="cls-9" points="907.16 354.15 757.54 413.49 1033.03 413.49 907.16 354.15"/><polygon class="cls-10" points="714 263.08 757.54 413.49 819.04 312.61 714 263.08"/><polygon class="cls-11" points="866 190.25 907.16 354.15 819.04 312.6 866 190.25"/><polygon class="cls-12" points="819.04 312.6 757.54 413.49 907.16 354.15 819.04 312.6"/><polygon class="cls-13" points="657.01 367.58 757.54 413.49 725.23 301.87 657.01 367.58"/><polygon class="cls-1" points="657.01 367.58 757.54 413.49 657.01 413.49 657.01 367.58"/><polygon class="cls-6" points="539.85 413.49 657.01 413.49 657.01 367.58 539.85 413.49"/><polygon class="cls-5" points="657.01 367.58 539.85 413.49 615.84 335.91 657.01 367.58"/><polygon class="cls-6" points="725.23 301.87 615.84 335.91 657.01 367.58 725.23 301.87"/><polygon class="cls-1" points="725.23 301.87 615.84 335.91 650.67 283.67 725.23 301.87"/><polygon class="cls-6" points="653.84 239.33 725.23 301.87 650.67 283.67 653.84 239.33"/><polygon class="cls-14" points="714 263.08 725.23 301.87 653.84 239.33 714 263.08"/><polygon class="cls-5" points="706.09 164.92 714 263.08 653.84 239.33 706.09 164.92"/><polygon class="cls-6" points="706.09 164.92 742.5 147.51 714 263.08 706.09 164.92"/><polygon class="cls-15" points="1051.7 71.25 1023.27 203.63 1174.89 120.22 1051.7 71.25"/><polygon class="cls-16" points="1174.89 120.22 1341.52 375.9 1324.94 332.38 1215.96 83.95 1174.89 120.22"/><polygon class="cls-17" points="1215.96 83.95 1174.89 120.22 1051.7 71.25 1215.96 83.95"/><polygon class="cls-18" points="1366 375.9 1324.94 332.38 1341.52 375.9 1366 375.9"/><polygon class="cls-19" points="1341.52 375.9 1174.89 120.22 1215.96 307.94 1341.52 375.9"/><polygon class="cls-20" points="1023.27 203.63 1128.05 260.35 1174.89 120.22 1023.27 203.63"/><polygon class="cls-21" points="1215.96 307.94 1066.7 375.9 1341.52 375.9 1215.96 307.94"/><polygon class="cls-22" points="1023.27 203.63 1066.7 375.9 1128.05 260.35 1023.27 203.63"/><polygon class="cls-23" points="1174.89 120.22 1215.96 307.93 1128.05 260.35 1174.89 120.22"/><polygon class="cls-24" points="1128.05 260.35 1066.7 375.9 1215.96 307.93 1128.05 260.35"/><polygon class="cls-25" points="966.41 323.31 1066.7 375.9 1034.47 248.06 966.41 323.31"/><polygon class="cls-15" points="966.41 323.31 1066.7 375.9 966.41 375.9 966.41 323.31"/><polygon class="cls-26" points="849.54 375.9 966.41 375.9 966.41 323.31 849.54 375.9"/><polygon class="cls-27" points="966.41 323.31 849.54 375.9 925.35 287.05 966.41 323.31"/><polygon class="cls-26" points="1034.47 248.06 925.35 287.05 966.41 323.31 1034.47 248.06"/><polygon class="cls-15" points="1034.47 248.06 925.35 287.05 960.1 227.21 1034.47 248.06"/><polygon class="cls-26" points="963.25 176.43 1034.47 248.06 960.1 227.21 963.25 176.43"/><polygon class="cls-28" points="1023.27 203.63 1034.47 248.06 963.25 176.43 1023.27 203.63"/><polygon class="cls-27" points="1015.38 91.2 1023.27 203.63 963.25 176.43 1015.38 91.2"/><polygon class="cls-26" points="1015.38 91.2 1051.7 71.25 1023.27 203.63 1015.38 91.2"/><polygon class="cls-29" points="452.59 127.81 618.74 369.89 778.87 369.89 452.59 127.81"/><polygon class="cls-29" points="423.27 149.61 394.45 369.89 618.74 369.89 423.27 149.61"/><polygon class="cls-30" points="452.59 127.81 423.27 149.61 618.74 369.89 452.59 127.81"/><polygon class="cls-31" points="347.33 0 423.27 149.61 394.45 369.89 347.33 0"/><polygon class="cls-32" points="347.33 0 452.59 127.81 423.27 149.61 347.33 0"/><polygon class="cls-29" points="347.33 0 270.65 16.54 394.45 369.89 347.33 0"/><polygon class="cls-33" points="270.65 16.54 394.45 369.89 223.29 325.53 270.65 16.54"/><polygon class="cls-34" points="394.45 369.89 119.54 298.47 177.93 369.89 394.45 369.89"/><polygon class="cls-35" points="270.65 16.54 119.54 298.47 223.29 325.53 270.65 16.54"/><polygon class="cls-35" points="106 369.89 119.54 298.47 177.93 369.89 106 369.89"/><polygon class="cls-34" points="119.54 298.47 106 369.89 0 369.89 119.54 298.47"/></g></g></svg>